<svg width="16" height="15" viewBox="0 0 16 15" fill="none" xmlns="http://www.w3.org/2000/svg">
<path d="M15.668 10.6367C15.668 11.2178 15.5825 11.7236 15.4116 12.1543C15.2476 12.5781 15.022 12.9336 14.7349 13.2207C14.4478 13.501 14.1094 13.7129 13.7197 13.8564C13.3301 13.9932 12.9165 14.0615 12.479 14.0615C12.0415 14.0615 11.6279 13.9932 11.2383 13.8564C10.8555 13.7129 10.5205 13.501 10.2334 13.2207C9.94629 12.9336 9.71729 12.5781 9.54639 12.1543C9.38232 11.7236 9.30029 11.2178 9.30029 10.6367C9.30029 10.0625 9.38232 9.56006 9.54639 9.12939C9.71729 8.69873 9.94629 8.34326 10.2334 8.06299C10.5205 7.77588 10.8555 7.56396 11.2383 7.42725C11.6279 7.28369 12.0415 7.21191 12.479 7.21191C12.9165 7.21191 13.3301 7.28369 13.7197 7.42725C14.1094 7.56396 14.4478 7.77588 14.7349 8.06299C15.022 8.34326 15.2476 8.69873 15.4116 9.12939C15.5825 9.56006 15.668 10.0625 15.668 10.6367ZM5.60889 14.2563H3.52734L11.1255 0.854492H13.207L5.60889 14.2563ZM7.27002 4.46387C7.27002 5.03809 7.18457 5.54053 7.01367 5.97119C6.84961 6.40186 6.62061 6.76074 6.32666 7.04785C6.03955 7.32812 5.70117 7.54004 5.31152 7.68359C4.92188 7.82031 4.5083 7.88867 4.0708 7.88867C3.6333 7.88867 3.22314 7.82031 2.84033 7.68359C2.45752 7.54004 2.12256 7.32812 1.83545 7.04785C1.54834 6.76074 1.31934 6.40186 1.14844 5.97119C0.984375 5.54053 0.902344 5.03809 0.902344 4.46387C0.902344 3.88965 0.984375 3.38721 1.14844 2.95654C1.31934 2.52588 1.54834 2.17041 1.83545 1.89014C2.12256 1.60303 2.45752 1.39111 2.84033 1.25439C3.22314 1.11084 3.6333 1.03906 4.0708 1.03906C4.5083 1.03906 4.92188 1.11084 5.31152 1.25439C5.70117 1.39111 6.03955 1.60303 6.32666 1.89014C6.62061 2.17041 6.84961 2.52588 7.01367 2.95654C7.18457 3.38721 7.27002 3.88965 7.27002 4.46387ZM13.9248 10.6367C13.9248 10.3291 13.9009 10.0488 13.853 9.7959C13.812 9.54297 13.7368 9.32764 13.6274 9.1499C13.5181 8.96533 13.3677 8.8252 13.1763 8.72949C12.9917 8.63379 12.7593 8.58594 12.479 8.58594C12.2056 8.58594 11.9731 8.63379 11.7817 8.72949C11.5972 8.8252 11.4468 8.96533 11.3306 9.1499C11.2212 9.32764 11.1426 9.54297 11.0947 9.7959C11.0469 10.0488 11.0229 10.3291 11.0229 10.6367C11.0229 10.9443 11.0435 11.2246 11.0845 11.4775C11.1323 11.7236 11.2109 11.9355 11.3203 12.1133C11.4297 12.291 11.5767 12.4312 11.7612 12.5337C11.9526 12.6294 12.1919 12.6772 12.479 12.6772C12.7593 12.6772 12.9917 12.6294 13.1763 12.5337C13.3677 12.4312 13.5181 12.291 13.6274 12.1133C13.7368 11.9355 13.812 11.7236 13.853 11.4775C13.9009 11.2246 13.9248 10.9443 13.9248 10.6367ZM5.52686 4.46387C5.52686 4.15625 5.50293 3.87598 5.45508 3.62305C5.41406 3.37012 5.33545 3.15479 5.21924 2.97705C5.10986 2.79248 4.96289 2.65234 4.77832 2.55664C4.59375 2.46094 4.35791 2.41309 4.0708 2.41309C3.79736 2.41309 3.56836 2.46094 3.38379 2.55664C3.19922 2.65234 3.04883 2.79248 2.93262 2.97705C2.82324 3.15479 2.74463 3.37012 2.69678 3.62305C2.64893 3.87598 2.625 4.15625 2.625 4.46387C2.625 4.77148 2.64551 5.05176 2.68652 5.30469C2.73438 5.55078 2.80957 5.7627 2.91211 5.94043C3.02148 6.11816 3.16846 6.2583 3.35303 6.36084C3.54443 6.45654 3.78369 6.50439 4.0708 6.50439C4.35791 6.50439 4.59375 6.45654 4.77832 6.36084C4.96289 6.2583 5.10986 6.11816 5.21924 5.94043C5.33545 5.7627 5.41406 5.55078 5.45508 5.30469C5.50293 5.05176 5.52686 4.77148 5.52686 4.46387Z" fill="#2F3035"/>
</svg>
